<?xml version="1.0" encoding="utf-8"?>
<!-- Generator: Adobe Illustrator 22.0.1, SVG Export Plug-In . SVG Version: 6.00 Build 0)  -->
<svg version="1.1" id="Layer_1" xmlns="http://www.w3.org/2000/svg" xmlns:xlink="http://www.w3.org/1999/xlink" x="0px" y="0px"
	 viewBox="0 0 478 187" style="enable-background:new 0 0 478 187;" xml:space="preserve">
<style type="text/css">
	.st0{fill:#FFFFFF;}
</style>
<g>
	<g>
		<path class="st0" d="M47.5,35.2c10.1,0,18.1,2.2,22.8,4.1l-5.5,19.3c-4.9-1.7-10.1-2.8-15.4-2.8c-6.6,0-17.8,1.6-17.8,19.6
			s11.2,19.5,17.8,19.5c5.3,0,10.5-1.1,15.4-2.8l5.5,19.5c-4.7,1.9-12.7,4.1-22.8,4.1c-27,0-42.1-15.2-42.1-40.2
			S20.4,35.2,47.5,35.2z"/>
		<path class="st0" d="M152.6,113.9c-3.8,0.8-7.7,1.3-12.4,1.3c-9,0-13.8-3.3-16.7-9.1h-0.3c-5.3,4.6-14.6,9.6-25.3,9.6
			c-17.1,0-24.5-11.2-24.5-23.6c0-16.5,10.1-25.9,38.5-25.9h8.8v-2.4c0-5.8-4.2-8-11.5-8c-8.2,0-16.5,1.7-25.1,5l-5.7-19
			c8.8-3.6,20.9-6.6,32.8-6.6c21.4,0,34.6,9.7,34.6,32.1v27.2c0,1.9,0.3,2.4,2.2,2.4h4.6L152.6,113.9L152.6,113.9z M112.8,81.3
			c-10.4,0-14.3,3-14.3,7.7c0,4.9,2.8,7.1,8.2,7.1c4.9,0,10.2-1.9,14-4.4V81.3H112.8z"/>
		<path class="st0" d="M181.6,37.5l3.8,8.6h0.3c2.8-6,7.4-11,18.2-11c2.5,0,5.5,0.5,7.2,0.8l-1.6,23.4c-2.4-0.3-5.2-0.5-7.5-0.5
			c-8,0-13.7,2.4-15.7,4.6v49.8h-25.8V37.5H181.6z"/>
		<path class="st0" d="M292.8,66.4v46.8H267V68.1c0-7.9-3.3-12.3-11.2-12.3c-5.8,0-10.5,2.8-13.4,5.8v51.7h-25.8V3.2h25.8v39.9h0.3
			c3.9-3.5,10.8-8,21.9-8C282.9,35.2,292.8,46.8,292.8,66.4z"/>
		<path class="st0" d="M342.6,115.6c-28,0-41.8-18.2-41.8-40.2s13.8-40.2,41.8-40.2c28.4,0,41.5,18.2,41.5,40.2
			S371.1,115.6,342.6,115.6z M342.6,95.1c9,0,15.2-5.5,15.2-19.6s-6.2-19.7-15.2-19.7c-8.6,0-15.6,5.5-15.6,19.6
			S334,95.1,342.6,95.1z"/>
		<path class="st0" d="M431,115.6c-28,0-41.8-18.2-41.8-40.2S403,35.2,431,35.2c28.4,0,41.5,18.2,41.5,40.2S459.4,115.6,431,115.6z
			 M431,95.1c9,0,15.2-5.5,15.2-19.6s-6.3-19.7-15.2-19.7c-8.6,0-15.6,5.5-15.6,19.6S422.3,95.1,431,95.1z"/>
	</g>
	<g>
		<path class="st0" d="M130.4,171.6c4.2,2.6,8.9,4.2,14.6,4.2c6.9,0,10.2-2.5,10.2-7c0-3.6-2.2-5.3-7.4-6.9l-5.9-1.6
			c-8.5-2.5-13.7-6.2-13.7-14c0-9,6.9-15.1,18.4-15.1c6.9,0,11.9,1.3,16.9,3.5l-2.9,7.5c-4.4-2.1-9.1-3.1-13.5-3.1
			c-6.7,0-9.6,2.5-9.6,6.9c0,3.3,1.6,4.9,7.3,6.5l5.8,1.5c8.5,2.2,13.9,6.6,13.9,14.7c0,9.1-7,15.1-18.6,15.1
			c-8.5,0-13.6-1.8-18.7-4.7L130.4,171.6z"/>
		<path class="st0" d="M189.6,121.3v11.5h13.2v7.6h-13.2v29.4c0,4.1,2.1,5.8,5.4,5.8c2.8,0,6.2-0.8,7.7-1.2v7.9
			c-1.9,0.5-5.6,1.4-9.7,1.4c-8.2,0-12.6-4.3-12.6-12.2v-31.2h-8.8v-5.5l8.8-2.1v-11.5H189.6z"/>
		<path class="st0" d="M235.5,183.7c-17.3,0-24.2-11.9-24.2-26.2s6.9-26.2,24.2-26.2c17.5,0,24.6,11.9,24.6,26.2
			S253,183.7,235.5,183.7z M235.5,175.6c11.1,0,15.2-7.9,15.2-18.1s-4.1-18.1-15.2-18.1c-11,0-14.8,7.9-14.8,18.1
			S224.5,175.6,235.5,175.6z"/>
		<path class="st0" d="M279.4,132.8l1.1,5.3h0.2c3.3-4.1,8-6.9,13.7-6.9c1.9,0,4,0.3,5.3,0.7l-1.3,8.3c-1.5-0.3-3.5-0.5-5-0.5
			c-6.5,0-9,3-11.4,7.2v35.3h-9.2v-49.4H279.4z"/>
		<path class="st0" d="M314.9,160.5c0,9,6.3,15.4,15.7,15.4c6.9,0,11.2-2.1,14.8-4.4l3.6,7c-4.4,2.9-10.6,5.3-19.2,5.3
			c-16.9,0-24.2-12.2-24.2-26.5c0-13.4,7.7-26,23.3-26s22,10.3,22,21.3c0,2.6-0.3,6.2-0.6,7.9H314.9z M341.9,153.1
			c0.1-0.7,0.1-1.4,0.1-2.2c0-6.9-4.6-11.8-13.1-11.8c-8.3,0-13.4,5.7-13.9,13.9H341.9z"/>
	</g>
</g>
</svg>
