<?xml version="1.0" encoding="utf-8"?>
<svg xmlns="http://www.w3.org/2000/svg" xmlns:xlink="http://www.w3.org/1999/xlink" style="margin: auto; background: none; display: block; shape-rendering: auto;" width="200px" height="200px" viewBox="0 0 100 100" preserveAspectRatio="xMidYMid">
<g transform="rotate(0 50 50)">
  <rect x="48.5" y="26.5" rx="1.5" ry="2.16" width="3" height="9" fill="#999999">
    <animate attributeName="opacity" values="1;0" keyTimes="0;1" dur="1.2987012987012987s" begin="-1.2059369202226344s" repeatCount="indefinite"></animate>
  </rect>
</g><g transform="rotate(25.714285714285715 50 50)">
  <rect x="48.5" y="26.5" rx="1.5" ry="2.16" width="3" height="9" fill="#999999">
    <animate attributeName="opacity" values="1;0" keyTimes="0;1" dur="1.2987012987012987s" begin="-1.1131725417439702s" repeatCount="indefinite"></animate>
  </rect>
</g><g transform="rotate(51.42857142857143 50 50)">
  <rect x="48.5" y="26.5" rx="1.5" ry="2.16" width="3" height="9" fill="#999999">
    <animate attributeName="opacity" values="1;0" keyTimes="0;1" dur="1.2987012987012987s" begin="-1.020408163265306s" repeatCount="indefinite"></animate>
  </rect>
</g><g transform="rotate(77.14285714285714 50 50)">
  <rect x="48.5" y="26.5" rx="1.5" ry="2.16" width="3" height="9" fill="#999999">
    <animate attributeName="opacity" values="1;0" keyTimes="0;1" dur="1.2987012987012987s" begin="-0.9276437847866418s" repeatCount="indefinite"></animate>
  </rect>
</g><g transform="rotate(102.85714285714286 50 50)">
  <rect x="48.5" y="26.5" rx="1.5" ry="2.16" width="3" height="9" fill="#999999">
    <animate attributeName="opacity" values="1;0" keyTimes="0;1" dur="1.2987012987012987s" begin="-0.8348794063079776s" repeatCount="indefinite"></animate>
  </rect>
</g><g transform="rotate(128.57142857142858 50 50)">
  <rect x="48.5" y="26.5" rx="1.5" ry="2.16" width="3" height="9" fill="#999999">
    <animate attributeName="opacity" values="1;0" keyTimes="0;1" dur="1.2987012987012987s" begin="-0.7421150278293135s" repeatCount="indefinite"></animate>
  </rect>
</g><g transform="rotate(154.28571428571428 50 50)">
  <rect x="48.5" y="26.5" rx="1.5" ry="2.16" width="3" height="9" fill="#999999">
    <animate attributeName="opacity" values="1;0" keyTimes="0;1" dur="1.2987012987012987s" begin="-0.6493506493506492s" repeatCount="indefinite"></animate>
  </rect>
</g><g transform="rotate(180 50 50)">
  <rect x="48.5" y="26.5" rx="1.5" ry="2.16" width="3" height="9" fill="#999999">
    <animate attributeName="opacity" values="1;0" keyTimes="0;1" dur="1.2987012987012987s" begin="-0.5565862708719851s" repeatCount="indefinite"></animate>
  </rect>
</g><g transform="rotate(205.71428571428572 50 50)">
  <rect x="48.5" y="26.5" rx="1.5" ry="2.16" width="3" height="9" fill="#999999">
    <animate attributeName="opacity" values="1;0" keyTimes="0;1" dur="1.2987012987012987s" begin="-0.4638218923933209s" repeatCount="indefinite"></animate>
  </rect>
</g><g transform="rotate(231.42857142857142 50 50)">
  <rect x="48.5" y="26.5" rx="1.5" ry="2.16" width="3" height="9" fill="#999999">
    <animate attributeName="opacity" values="1;0" keyTimes="0;1" dur="1.2987012987012987s" begin="-0.37105751391465674s" repeatCount="indefinite"></animate>
  </rect>
</g><g transform="rotate(257.14285714285717 50 50)">
  <rect x="48.5" y="26.5" rx="1.5" ry="2.16" width="3" height="9" fill="#999999">
    <animate attributeName="opacity" values="1;0" keyTimes="0;1" dur="1.2987012987012987s" begin="-0.27829313543599254s" repeatCount="indefinite"></animate>
  </rect>
</g><g transform="rotate(282.85714285714283 50 50)">
  <rect x="48.5" y="26.5" rx="1.5" ry="2.16" width="3" height="9" fill="#999999">
    <animate attributeName="opacity" values="1;0" keyTimes="0;1" dur="1.2987012987012987s" begin="-0.18552875695732837s" repeatCount="indefinite"></animate>
  </rect>
</g><g transform="rotate(308.57142857142856 50 50)">
  <rect x="48.5" y="26.5" rx="1.5" ry="2.16" width="3" height="9" fill="#999999">
    <animate attributeName="opacity" values="1;0" keyTimes="0;1" dur="1.2987012987012987s" begin="-0.09276437847866419s" repeatCount="indefinite"></animate>
  </rect>
</g><g transform="rotate(334.2857142857143 50 50)">
  <rect x="48.5" y="26.5" rx="1.5" ry="2.16" width="3" height="9" fill="#999999">
    <animate attributeName="opacity" values="1;0" keyTimes="0;1" dur="1.2987012987012987s" begin="0s" repeatCount="indefinite"></animate>
  </rect>
</g>
<!-- [ldio] generated by https://loading.io/ --></svg>